<svg width="16" height="16" viewBox="0 0 16 16" fill="none" xmlns="http://www.w3.org/2000/svg">
<path fill-rule="evenodd" clip-rule="evenodd" d="M5.1665 0H8.43773V1.65675H9.37527V16H0V1.65675H5.1665V0ZM7.50024 0.937484H6.10399V1.65675H7.50024V0.937484ZM8.43779 4.78182H0.937484V12.8746H8.43779V4.78182ZM0.937484 13.812V15.0625H8.43779V13.812H0.937484ZM0.937484 3.84434H8.43779V2.59424H0.937484V3.84434ZM5.17128 7.043C5.23028 6.78354 5.46237 6.58907 5.73946 6.58907V5.65159C4.94585 5.65159 4.29267 6.26283 4.22508 7.03922C3.06429 7.25693 2.18293 8.27738 2.18293 9.50039C2.18293 10.8815 3.30653 12.0051 4.68764 12.0051C6.06874 12.0051 7.19234 10.8815 7.19234 9.50039C7.19234 8.28476 6.3217 7.26903 5.17128 7.043ZM4.68764 11.0676C3.82346 11.0676 3.12041 10.3646 3.12041 9.50043C3.12041 8.63625 3.82346 7.9332 4.68764 7.9332C5.55181 7.9332 6.25486 8.63625 6.25486 9.50043C6.25486 10.3646 5.55181 11.0676 4.68764 11.0676ZM10.3129 6.67176V14.3229C10.3129 15.2477 11.0652 16 11.9899 16H14.3226C15.2473 16 15.9997 15.2477 15.9997 14.3229V6.67176H10.3129ZM15.0622 7.60924V8.54685H11.2504V7.60924H15.0622ZM14.3226 15.0625H11.9899C11.5821 15.0625 11.2504 14.7307 11.2504 14.3229V9.48433H15.0622V14.3229C15.0622 14.7307 14.7304 15.0625 14.3226 15.0625ZM12.5313 11.3359H13.4688V12.2734H12.5313V11.3359ZM13.7813 13.0235H12.8438V13.961H13.7813V13.0235Z" fill="#8F8F8F"/>
</svg>
