<svg width="12" height="20" viewBox="0 0 12 20" fill="none" xmlns="http://www.w3.org/2000/svg">
<path d="M9.69139 7.17727C8.81667 6.78367 8.18466 6.49929 8.18466 5.37887V3.42582H8.28012C8.49181 3.42582 8.66348 3.25415 8.66348 3.04245V1.25272C8.66352 0.561973 8.10185 0 7.41149 0H4.58851C3.89815 0 3.33652 0.561973 3.33652 1.25272V3.04249C3.33652 3.25419 3.50819 3.42586 3.71988 3.42586H3.81534V5.37887C3.81534 6.49932 3.18337 6.7837 2.30861 7.17727C1.11343 7.71505 -0.373945 8.38433 0.0854017 11.5326L1.10377 18.5153C1.19881 19.1706 1.67717 19.6282 2.26713 19.6282H9.73287C10.3228 19.6282 10.8012 19.1706 10.8962 18.5156L11.9146 11.5327C12.3739 8.38433 10.8866 7.71505 9.69139 7.17727ZM4.10321 1.25272C4.10321 0.984747 4.32092 0.766728 4.58847 0.766728H7.41149C7.67904 0.766728 7.89675 0.984747 7.89675 1.25272V2.65913H4.10321V1.25272ZM11.1559 11.4219L10.1374 18.4053C10.1045 18.6324 9.96665 18.8615 9.73287 18.8615H2.26713C2.03335 18.8615 1.89553 18.6323 1.86252 18.405L0.844118 11.4219C0.468267 8.84613 1.46693 8.39675 2.62323 7.87648C3.54139 7.46333 4.58207 6.99505 4.58207 5.37887V3.42582H7.41797V5.37883C7.41797 6.99501 8.45865 7.46329 9.37681 7.87644C10.5331 8.39675 11.5317 8.84613 11.1559 11.4219Z" fill="#8F8F8F"/>
<path d="M8.36484 15.3843H3.63516C3.10405 15.3843 2.672 15.8161 2.672 16.3468V16.9771C2.672 17.5078 3.10409 17.9396 3.63516 17.9396H8.3648C8.89591 17.9396 9.32796 17.5078 9.32796 16.9771V16.3468C9.328 15.8161 8.89591 15.3843 8.36484 15.3843ZM8.56127 16.9771C8.56127 17.0833 8.4713 17.1729 8.36484 17.1729H3.63516C3.5287 17.1729 3.43873 17.0832 3.43873 16.9771V16.3469C3.43873 16.2407 3.5287 16.151 3.63516 16.151H8.3648C8.47126 16.151 8.56124 16.2407 8.56124 16.3469V16.9771H8.56127Z" fill="#8F8F8F"/>
<path d="M8.92306 8.68188C6.95613 7.68088 5.04387 7.68088 3.07668 8.68204C2.43876 9.00728 2.03692 9.2271 1.82273 9.6301C1.61526 10.0205 1.63531 10.4761 1.75426 11.2893L1.96055 12.6998C1.98808 12.8881 2.14959 13.0277 2.33989 13.0277H4.28013C4.49183 13.0277 4.6635 12.8561 4.6635 12.6444C4.6635 12.4327 4.49183 12.261 4.28013 12.261H2.67123L2.5129 11.1784C2.42266 10.5614 2.39387 10.1892 2.49975 9.98996C2.60388 9.79406 2.91877 9.6232 3.42473 9.36519C5.15762 8.48323 6.84239 8.48326 8.575 9.36508C9.08096 9.62304 9.39567 9.79383 9.49975 9.98985C9.60552 10.189 9.57688 10.5613 9.4871 11.1784L9.32877 12.261H7.71987C7.50817 12.261 7.3365 12.4327 7.3365 12.6444C7.3365 12.8561 7.50817 13.0277 7.71987 13.0277H9.66011C9.85041 13.0277 10.0119 12.8881 10.0395 12.6998L10.2458 11.289C10.3641 10.4758 10.384 10.0201 10.1769 9.63017C9.96278 9.22699 9.56105 9.00717 8.92306 8.68188Z" fill="#8F8F8F"/>
<path d="M6.00227 13.0277C6.21396 13.0277 6.38456 12.856 6.38456 12.6444C6.38456 12.4327 6.21182 12.261 6.00012 12.261C5.78843 12.261 5.61676 12.4327 5.61676 12.6444C5.61676 12.856 5.78843 13.0277 6.00012 13.0277H6.00227Z" fill="#8F8F8F"/>
</svg>
