<svg width="16" height="16" viewBox="0 0 16 16" fill="none" xmlns="http://www.w3.org/2000/svg">
<path fill-rule="evenodd" clip-rule="evenodd" d="M15.9999 7.99994C15.9999 9.14225 14.9243 10.0856 13.5473 10.2056C13.102 11.3273 12.3364 12.2544 11.4092 12.8998C12.2493 13.5382 12.8724 14.3996 13.1953 15.3852C13.276 15.6312 13.1419 15.896 12.8958 15.9766C12.6498 16.0571 12.3851 15.9231 12.3044 15.6771C12.0005 14.7495 11.3672 13.9546 10.5092 13.4162C8.97972 14.1245 7.1727 14.1669 5.57659 13.4556C4.75022 13.9933 4.13878 14.7742 3.84291 15.6771C3.76229 15.9231 3.49751 16.0572 3.25151 15.9766C3.00551 15.896 2.87142 15.6312 2.95204 15.3852C3.26538 14.429 3.86457 13.5863 4.67012 12.9529C3.67779 12.2823 2.89686 11.3185 2.45289 10.2057C1.07577 10.0858 0 9.14237 0 7.99994C0 6.85761 1.07562 5.91424 2.45261 5.79424C2.98642 4.453 3.99613 3.34335 5.28281 2.68458C5.31715 1.21499 6.51486 0 7.99994 0C9.48615 0 10.6828 1.21634 10.7171 2.68454C12.0038 3.34332 13.0135 4.45294 13.5473 5.79421C14.9243 5.91424 15.9999 6.85761 15.9999 7.99994ZM13.8463 9.20672C14.5462 9.02787 15.0624 8.54753 15.0624 7.99994C15.0624 7.45235 14.5462 6.97201 13.8463 6.7932C14.0096 7.58742 14.0093 8.41416 13.8463 9.20672ZM9.76562 2.51001C9.64993 1.62358 8.90222 0.937494 7.99994 0.937494C7.01776 0.937494 6.21871 1.75058 6.21871 2.74995C6.21871 3.51941 6.70352 4.18063 7.39823 4.42769C7.71598 3.38104 8.64463 2.60636 9.76562 2.51001ZM2.15355 6.79317C1.45365 6.97201 0.937494 7.45235 0.937494 7.99994C0.937494 8.54753 1.45365 9.02787 2.15355 9.20669C1.99027 8.41247 1.99061 7.58573 2.15355 6.79317ZM3.2272 9.59571C4.26194 12.5886 7.61798 13.869 10.3148 12.4683C11.4098 11.8998 12.3195 10.9095 12.7727 9.59568C13.588 7.15651 12.4258 4.51803 10.1347 3.44319C9.16075 3.36966 8.32569 4.07919 8.22804 5.03493C8.20169 5.29274 7.97082 5.48062 7.71263 5.45346C6.64617 5.34121 5.78208 4.62706 5.43996 3.66829C3.39913 4.87684 2.47551 7.34692 3.2272 9.59571ZM6.84919 6.78465C7.03225 6.96771 7.03225 7.26449 6.84919 7.44755C6.6661 7.63061 6.36932 7.63058 6.18625 7.44755C5.88091 7.14221 5.38675 7.14224 5.08141 7.44755C4.89835 7.63061 4.60153 7.63061 4.4185 7.44755C4.23544 7.26449 4.23544 6.96771 4.4185 6.78465C5.09028 6.11286 6.1775 6.11296 6.84919 6.78465ZM11.5992 6.78461C10.9275 6.11293 9.84025 6.11283 9.16847 6.78461C8.9854 6.96768 8.9854 7.26446 9.16847 7.44752C9.3515 7.63058 9.64831 7.63058 9.83137 7.44752C10.1367 7.14221 10.6309 7.14218 10.9362 7.44752C11.1193 7.63055 11.416 7.63062 11.5991 7.44752C11.7822 7.26449 11.7822 6.96768 11.5992 6.78461ZM7.09399 9.91847C7.59355 10.418 8.4064 10.418 8.90596 9.91847C9.08902 9.73544 9.38577 9.73544 9.56887 9.91847C9.75193 10.1015 9.75193 10.3983 9.56887 10.5814C8.70377 11.4464 7.29618 11.4464 6.43108 10.5814C6.24805 10.3983 6.24805 10.1015 6.43108 9.91847C6.61415 9.7354 6.91096 9.73544 7.09399 9.91847Z" fill="#8F8F8F"/>
</svg>
