<svg width="14" height="14" viewBox="0 0 14 14" fill="none" xmlns="http://www.w3.org/2000/svg">
<path fill-rule="evenodd" clip-rule="evenodd" d="M1.61897 0H4.83416C5.72685 0 6.45312 0.726277 6.45312 1.61897V4.83416C6.45312 5.72685 5.72685 6.45312 4.83416 6.45312H1.61897C0.726277 6.45312 0 5.72685 0 4.83416V1.61897C0 0.726277 0.726277 0 1.61897 0ZM4.83416 5.35938C5.12375 5.35938 5.35938 5.12375 5.35938 4.83416V1.61897C5.35938 1.32937 5.12375 1.09375 4.83416 1.09375H1.61897C1.32937 1.09375 1.09375 1.32937 1.09375 1.61897V4.83416C1.09375 5.12375 1.32937 5.35938 1.61897 5.35938H4.83416ZM9.1875 0H12.3594C13.264 0 14 0.735984 14 1.64062V4.8125C14 5.71714 13.264 6.45312 12.3594 6.45312H9.1875C8.28286 6.45312 7.54688 5.71714 7.54688 4.8125V1.64062C7.54688 0.735984 8.28286 0 9.1875 0ZM12.3594 5.35938C12.6609 5.35938 12.9062 5.11405 12.9062 4.8125V1.64062C12.9062 1.33908 12.6609 1.09375 12.3594 1.09375H9.1875C8.88595 1.09375 8.64062 1.33908 8.64062 1.64062V4.8125C8.64062 5.11405 8.88595 5.35938 9.1875 5.35938H12.3594ZM4.83416 7.54688H1.61897C0.726277 7.54688 0 8.27315 0 9.16584V12.381C0 13.2737 0.726277 14 1.61897 14H4.83416C5.72685 14 6.45312 13.2737 6.45312 12.381V9.16584C6.45312 8.27315 5.72685 7.54688 4.83416 7.54688ZM5.35938 12.381C5.35938 12.6706 5.12375 12.9062 4.83416 12.9062H1.61897C1.32937 12.9062 1.09375 12.6706 1.09375 12.381V9.16584C1.09375 8.87625 1.32937 8.64062 1.61897 8.64062H4.83416C5.12375 8.64062 5.35938 8.87625 5.35938 9.16584V12.381ZM9.1875 7.54688H12.3594C13.264 7.54688 14 8.28286 14 9.1875V12.3594C14 13.264 13.264 14 12.3594 14H9.1875C8.28286 14 7.54688 13.264 7.54688 12.3594V9.1875C7.54688 8.28286 8.28286 7.54688 9.1875 7.54688ZM12.3594 12.9062C12.6609 12.9062 12.9062 12.6609 12.9062 12.3594V9.1875C12.9062 8.88595 12.6609 8.64062 12.3594 8.64062H9.1875C8.88595 8.64062 8.64062 8.88595 8.64062 9.1875V12.3594C8.64062 12.6609 8.88595 12.9062 9.1875 12.9062H12.3594Z" fill="#8F8F8F"/>
</svg>
