<svg width="15" height="16" viewBox="0 0 15 16" fill="none" xmlns="http://www.w3.org/2000/svg">
<path fill-rule="evenodd" clip-rule="evenodd" d="M13.9693 7.17625H13.4445C13.5356 6.97772 13.5841 6.75953 13.5841 6.53422V6.50062C13.5841 5.75153 13.0466 5.12569 12.3373 4.98878C12.5395 4.72815 12.6601 4.40103 12.6601 4.04631C12.6601 3.19734 11.9697 2.50662 11.1211 2.50662H7.98663C7.80638 2.41325 7.64175 2.29256 7.4965 2.14721C7.04069 1.69115 6.84231 1.0269 6.96591 0.370308C6.985 0.268839 6.95275 0.164495 6.87975 0.0915263C6.80675 0.018495 6.70238 -0.0136925 6.60097 0.00540128C6.08335 0.102901 5.5951 0.359901 5.22616 0.728995C4.74838 1.20706 4.47969 1.84065 4.46353 2.50662H3.16075C2.31216 2.50662 1.62175 3.19734 1.62175 4.04631C1.62175 4.40106 1.74228 4.72815 1.94456 4.98878C1.23516 5.12569 0.697688 5.75153 0.697688 6.50062V6.53422C0.697688 6.75953 0.746219 6.97772 0.837282 7.17625H0.3125C0.139906 7.17625 0 7.31619 0 7.48875V12.6278C0 14.4873 1.51272 16 3.37216 16H10.9096C12.769 16 14.2818 14.4873 14.2818 12.6278V7.48875C14.2818 7.31615 14.1418 7.17625 13.9693 7.17625ZM1.32259 6.50062C1.32259 5.99625 1.73263 5.58594 2.23659 5.58594H2.77131L2.77369 5.58597H8.50207C8.67466 5.58597 8.81457 5.44603 8.81457 5.27347C8.81457 5.1009 8.67466 4.96097 8.50207 4.96097H3.16309L3.16072 4.96094C2.65672 4.96094 2.24672 4.55062 2.24672 4.04628C2.24672 3.5419 2.65675 3.13159 3.16072 3.13159H4.7885C4.87716 3.13159 4.96166 3.09393 5.02091 3.028C5.08019 2.96209 5.10866 2.87406 5.09922 2.7859C5.0351 2.18546 5.24247 1.59678 5.66819 1.17081C5.84869 0.990214 6.067 0.844808 6.30488 0.744214C6.30203 1.43615 6.567 2.10134 7.05444 2.58903C7.26656 2.80125 7.51044 2.97365 7.77935 3.10137C7.82125 3.12131 7.86706 3.13162 7.91344 3.13162H11.1211C11.6251 3.13162 12.0351 3.54193 12.0351 4.04631C12.0351 4.55065 11.625 4.96097 11.1211 4.96097C10.9485 4.96097 10.8086 5.10087 10.8086 5.27347C10.8086 5.44603 10.9485 5.58597 11.1211 5.58597H12.0451C12.5491 5.58597 12.9592 5.99628 12.9592 6.50065V6.53425C12.9592 6.77687 12.8643 7.00572 12.6959 7.17628H1.58584C1.41744 7.00569 1.32259 6.77684 1.32259 6.53422V6.50062ZM13.6568 12.6278H13.6568C13.6568 14.1427 12.4244 15.375 10.9096 15.375H3.37216C1.85738 15.375 0.625 14.1427 0.625 12.6278V9.46681H13.6568V12.6278ZM13.6568 8.84181H0.625V7.80125H13.6568V8.84181ZM10.0368 5.20406C10.0328 5.18406 10.0268 5.16441 10.019 5.14566C10.0112 5.12691 10.0015 5.10878 9.99026 5.09159C9.97901 5.07469 9.96588 5.05847 9.95151 5.04409C9.89338 4.98594 9.81276 4.9525 9.73057 4.9525C9.64838 4.9525 9.56776 4.98597 9.50963 5.04409C9.49526 5.05847 9.48213 5.07472 9.47088 5.09159C9.4596 5.10875 9.44991 5.12687 9.4421 5.14566C9.43429 5.16437 9.42804 5.18406 9.42429 5.20406C9.42023 5.22437 9.41804 5.24472 9.41804 5.265C9.41804 5.28562 9.42023 5.30594 9.42429 5.32625C9.42804 5.34625 9.43429 5.36594 9.4421 5.38469C9.44991 5.40347 9.45963 5.42159 9.47088 5.43844C9.48213 5.45562 9.49526 5.47156 9.50963 5.48625C9.52401 5.50062 9.53994 5.51375 9.55713 5.525C9.57401 5.53625 9.59213 5.54594 9.61088 5.55375C9.62994 5.56156 9.64963 5.5675 9.66963 5.57156C9.68963 5.57559 9.71026 5.57747 9.73057 5.57747C9.75088 5.57747 9.77151 5.57559 9.79151 5.57156C9.81151 5.5675 9.83119 5.56156 9.84994 5.55375C9.86901 5.54594 9.88713 5.53625 9.90401 5.525C9.9212 5.51375 9.93713 5.50062 9.95151 5.48625C9.96588 5.47159 9.97901 5.45566 9.99026 5.43844C10.0015 5.42159 10.0112 5.40347 10.019 5.38469C10.0268 5.36594 10.0328 5.34628 10.0368 5.32625C10.0409 5.30597 10.0431 5.28562 10.0431 5.265C10.0431 5.24472 10.0409 5.22437 10.0368 5.20406ZM8.45854 12.0884C9.19644 11.9693 9.93235 12.2769 9.97113 12.2935C10.1008 12.3488 10.1774 12.4841 10.1581 12.6237C10.1508 12.6763 9.96972 13.9187 9.0976 14.4123C8.80522 14.5778 8.48057 14.6334 8.17644 14.6334C7.73407 14.6334 7.33494 14.5158 7.14085 14.4477C6.94672 14.5158 6.5476 14.6334 6.10528 14.6334C5.8011 14.6335 5.47657 14.5779 5.18413 14.4123C4.31203 13.9187 4.13091 12.6764 4.1236 12.6238C4.10425 12.4841 4.18085 12.3488 4.31053 12.2935C4.34928 12.277 5.08525 11.9693 5.82313 12.0884C5.79885 11.9795 5.78663 11.8708 5.78663 11.7625C5.78663 10.7338 6.91679 9.95219 6.96491 9.91941C7.07107 9.8471 7.2106 9.8471 7.31675 9.91941C7.36488 9.95219 8.49504 10.7338 8.49504 11.7625C8.49504 11.8708 8.48282 11.9795 8.45854 12.0884ZM4.79722 12.787C4.882 13.1031 5.08047 13.6355 5.49203 13.8684C5.90057 14.0998 6.461 13.9962 6.77666 13.9068C6.7115 13.664 6.57935 13.2942 6.33532 13.0301C6.32713 13.0224 6.31929 13.0141 6.31182 13.0054C6.24382 12.9358 6.16753 12.8745 6.08207 12.8261C5.6706 12.5932 5.1121 12.6969 4.79722 12.787ZM7.14088 13.1158C7.23141 12.9385 7.34672 12.7597 7.49282 12.6018L7.49335 12.6011C7.66522 12.3975 7.87007 12.0868 7.87007 11.7625C7.87007 11.292 7.43782 10.8236 7.14085 10.5721C6.84413 10.8234 6.41169 11.2919 6.41169 11.7625C6.41169 12.0868 6.61657 12.3975 6.78841 12.6011L6.78907 12.6019C6.9351 12.7598 7.05038 12.9386 7.14088 13.1158ZM7.50566 13.9078C7.82047 13.9978 8.3785 14.1012 8.78972 13.8684C9.19825 13.6372 9.398 13.1034 9.48379 12.7868C9.16894 12.6968 8.61094 12.5933 8.19969 12.8261C8.11091 12.8764 8.03197 12.9409 7.96194 13.0144L7.95607 13.0207C7.7076 13.2851 7.57225 13.6619 7.50566 13.9078Z" fill="#FEBE01"/>
</svg>
